<?xml version="1.0" encoding="UTF-8" standalone="no"?>
<!-- Created with Inkscape (http://www.inkscape.org/) -->

<svg
   width="79.375mm"
   height="73.998436mm"
   viewBox="0 0 79.375 73.998436"
   version="1.1"
   id="svg603"
   xmlns:xlink="http://www.w3.org/1999/xlink"
   xmlns="http://www.w3.org/2000/svg"
   xmlns:svg="http://www.w3.org/2000/svg">
  <defs
     id="defs600">
    <clipPath
       clipPathUnits="userSpaceOnUse"
       id="clipPath6409">
      <path
         d="M 0,0 H 561 V 522.99999 H 0 Z"
         clip-rule="nonzero"
         id="path6411"
         style="stroke-width:0.999999" />
    </clipPath>
    <linearGradient
       xlink:href="#linearGradient6584"
       id="linearGradient6729"
       x1="218.89011"
       y1="151.77226"
       x2="315.40784"
       y2="151.77226"
       gradientUnits="userSpaceOnUse" />
    <linearGradient
       id="linearGradient6584">
      <stop
         style="stop-color:#ff551b;stop-opacity:1;"
         offset="0"
         id="stop6580" />
      <stop
         style="stop-color:#ff1bbd;stop-opacity:1;"
         offset="1"
         id="stop6582" />
    </linearGradient>
    <clipPath
       clipPathUnits="userSpaceOnUse"
       id="clipPath6405">
      <path
         d="M 0,0 H 561 V 522.99999 H 0 Z"
         clip-rule="nonzero"
         id="path6407"
         style="stroke-width:0.999999" />
    </clipPath>
    <linearGradient
       xlink:href="#linearGradient6584"
       id="linearGradient6737"
       x1="269.005"
       y1="179.86499"
       x2="438.33716"
       y2="179.86499"
       gradientUnits="userSpaceOnUse" />
    <clipPath
       clipPathUnits="userSpaceOnUse"
       id="clipPath6401">
      <path
         d="M 0,0 H 561 V 522.99999 H 0 Z"
         clip-rule="nonzero"
         id="path6403"
         style="stroke-width:0.999999" />
    </clipPath>
    <linearGradient
       xlink:href="#linearGradient6584"
       id="linearGradient6761"
       x1="231.55774"
       y1="374.51312"
       x2="325.57349"
       y2="374.51312"
       gradientUnits="userSpaceOnUse" />
    <clipPath
       clipPathUnits="userSpaceOnUse"
       id="clipPath6397">
      <path
         d="M 0,0 H 561 V 522.99999 H 0 Z"
         clip-rule="nonzero"
         id="path6399"
         style="stroke-width:0.999999" />
    </clipPath>
    <linearGradient
       xlink:href="#linearGradient6584"
       id="linearGradient6753"
       x1="268.90369"
       y1="348.87015"
       x2="443.82327"
       y2="348.87015"
       gradientUnits="userSpaceOnUse" />
    <clipPath
       clipPathUnits="userSpaceOnUse"
       id="clipPath6393">
      <path
         d="M 0,0 H 561 V 522.99999 H 0 Z"
         clip-rule="nonzero"
         id="path6395"
         style="stroke-width:0.999999" />
    </clipPath>
    <linearGradient
       xlink:href="#linearGradient6584"
       id="linearGradient6745"
       x1="276.74933"
       y1="258.06693"
       x2="548.08795"
       y2="258.06693"
       gradientUnits="userSpaceOnUse" />
    <clipPath
       clipPathUnits="userSpaceOnUse"
       id="clipPath6389">
      <path
         d="M 0,0 H 561 V 522.99999 H 0 Z"
         clip-rule="nonzero"
         id="path6391"
         style="stroke-width:0.999999" />
    </clipPath>
    <linearGradient
       xlink:href="#linearGradient6584"
       id="linearGradient6721"
       x1="33.087418"
       y1="99.846397"
       x2="99.958008"
       y2="97.213234"
       gradientUnits="userSpaceOnUse"
       gradientTransform="matrix(0.26458333,0,0,0.26458333,-32.805792,-21.080454)" />
    <linearGradient
       xlink:href="#linearGradient6584"
       id="linearGradient6586"
       x1="12.485796"
       y1="271.547"
       x2="127.71959"
       y2="273.38571"
       gradientUnits="userSpaceOnUse" />
    <clipPath
       clipPathUnits="userSpaceOnUse"
       id="clipPath6385">
      <path
         d="M 0,0 H 561 V 522.99999 H 0 Z"
         clip-rule="nonzero"
         id="path6387"
         style="stroke-width:0.999999" />
    </clipPath>
    <linearGradient
       xlink:href="#linearGradient6584"
       id="linearGradient6769"
       x1="119.06578"
       y1="466.91055"
       x2="188.00705"
       y2="364.69965"
       gradientUnits="userSpaceOnUse" />
    <clipPath
       clipPathUnits="userSpaceOnUse"
       id="clipPath6381">
      <path
         d="M 0,0 H 561 V 522.99999 H 0 Z"
         clip-rule="nonzero"
         id="path6383"
         style="stroke-width:0.999999" />
    </clipPath>
    <clipPath
       clipPathUnits="userSpaceOnUse"
       id="clipPath6377">
      <path
         d="M 0,0 H 561 V 522.99999 H 0 Z"
         clip-rule="nonzero"
         id="path6379"
         style="stroke-width:0.999999" />
    </clipPath>
    <clipPath
       clipPathUnits="userSpaceOnUse"
       id="clipPath6373">
      <path
         d="M 0,0 H 561 V 522.99999 H 0 Z"
         clip-rule="nonzero"
         id="path6375"
         style="stroke-width:0.999999" />
    </clipPath>
    <clipPath
       clipPathUnits="userSpaceOnUse"
       id="clipPath6369">
      <path
         d="M 0,0 H 561 V 522.99999 H 0 Z"
         clip-rule="nonzero"
         id="path6371"
         style="stroke-width:0.999999" />
    </clipPath>
    <clipPath
       clipPathUnits="userSpaceOnUse"
       id="clipPath6365">
      <path
         d="M 0,0 H 561 V 522.99999 H 0 Z"
         clip-rule="nonzero"
         id="path6367"
         style="stroke-width:0.999999" />
    </clipPath>
    <clipPath
       clipPathUnits="userSpaceOnUse"
       id="clipPath6361">
      <path
         d="M 0,0 H 561 V 522.99999 H 0 Z"
         clip-rule="nonzero"
         id="path6363"
         style="stroke-width:0.999999" />
    </clipPath>
    <clipPath
       clipPathUnits="userSpaceOnUse"
       id="clipPath6357">
      <path
         d="M 0,0 H 561 V 522.99999 H 0 Z"
         clip-rule="nonzero"
         id="path6359"
         style="stroke-width:0.999999" />
    </clipPath>
  </defs>
  <g
     id="layer1"
     transform="translate(-65.312501,-111.50079)">
    <g
       id="g977"
       transform="translate(98.118293,132.56342)">
      <path
         fill="#000000"
         fill-opacity="0"
         d="M 0,0 H 561.54333 V 523.16534 H 0 Z"
         fill-rule="nonzero"
         id="path3634"
         transform="matrix(0.14148841,0,0,0.14148841,-32.805792,-21.062634)"
         clip-path="url(#clipPath6409)" />
      <path
         fill="#ff551b"
         d="m 220.31432,155.788 v 0 c -6.40128,-74.658455 9.37804,-136.979 35.2441,-139.19684 v 0 c 12.42132,-1.065043 25.55505,12.155788 36.5119,36.754066 10.95684,24.59827 18.83929,58.559034 21.9133,94.411284 v 0 c 6.40127,74.65846 -9.37806,136.97903 -35.24411,139.19687 v 0 c -12.4213,1.06503 -25.55503,-12.15579 -36.51187,-36.75407 -10.95685,-24.59828 -18.83931,-58.55904 -21.91332,-94.4113 z"
         fill-rule="nonzero"
         id="path3636"
         transform="matrix(0.14148841,0,0,0.14148841,-32.805792,-21.062634)"
         clip-path="url(#clipPath6405)"
         style="fill:url(#linearGradient6729);fill-opacity:1" />
      <path
         fill="#ff551b"
         d="m 314.52148,153.84923 v 0 C 355.98199,91.43671 407.12023,52.48901 428.74197,66.85711 v 0 c 10.38312,6.899803 12.43173,25.423164 5.69519,51.49515 -6.73654,26.07198 -21.70642,57.55692 -41.61645,87.52848 v 0 c -41.46051,62.4125 -92.59876,101.36023 -114.22046,86.99213 v 0 c -10.38315,-6.89981 -12.43177,-25.42319 -5.69523,-51.49516 6.73655,-26.07198 21.70642,-57.55692 41.61646,-87.52847 z"
         fill-rule="nonzero"
         id="path3638"
         transform="matrix(0.14148841,0,0,0.14148841,-32.805792,-21.062634)"
         clip-path="url(#clipPath6401)"
         style="fill:url(#linearGradient6737);fill-opacity:1" />
      <path
         fill="#ff551b"
         d="m 231.55774,374.51312 v 0 c 0,-74.92807 21.04614,-135.6693 47.00787,-135.6693 v 0 c 12.46726,0 24.42389,14.2937 33.2396,39.73662 8.81567,25.44293 13.76828,59.95096 13.76828,95.93268 v 0 c 0,74.92807 -21.04615,135.66928 -47.00788,135.66928 v 0 c -12.46725,0 -24.42389,-14.29367 -33.23958,-39.7366 -8.81569,-25.44294 -13.76829,-59.95096 -13.76829,-95.93268 z"
         fill-rule="nonzero"
         id="path3640"
         transform="matrix(0.14148841,0,0,0.14148841,-32.805792,-21.062634)"
         clip-path="url(#clipPath6397)"
         style="fill:url(#linearGradient6761);fill-opacity:1" />
      <path
         fill="#ff551b"
         d="m 394.67844,321.6418 v 0 c 43.40872,61.07312 61.44421,122.77322 40.28345,137.811 v 0 c -10.16175,7.22144 -28.1882,2.49643 -50.11371,-13.13556 -21.92551,-15.63196 -45.95407,-40.89041 -66.79965,-70.21875 v 0 C 274.63981,315.02537 256.60428,253.32527 277.76505,238.28745 v 0 c 10.16177,-7.2214 28.1882,-2.4964 50.11371,13.13558 21.92551,15.63197 45.95407,40.89042 66.79968,70.21876 z"
         fill-rule="nonzero"
         id="path3642"
         transform="matrix(0.14148841,0,0,0.14148841,-32.805792,-21.062634)"
         clip-path="url(#clipPath6393)"
         style="fill:url(#linearGradient6753);fill-opacity:1" />
      <path
         fill="#ff551b"
         d="m 412.41864,211.05905 v 0 c 74.92807,0 135.66931,21.04614 135.66931,47.00787 v 0 c 0,12.46726 -14.2937,24.42389 -39.73663,33.2396 -25.44294,8.81567 -59.95096,13.76828 -95.93268,13.76828 v 0 c -74.9281,0 -135.66931,-21.04614 -135.66931,-47.00788 v 0 c 0,-12.46725 14.2937,-24.42389 39.73663,-33.23958 25.44293,-8.81568 59.95093,-13.76829 95.93268,-13.76829 z"
         fill-rule="nonzero"
         id="path3644"
         transform="matrix(0.14148841,0,0,0.14148841,-32.805792,-21.062634)"
         clip-path="url(#clipPath6389)"
         style="fill:url(#linearGradient6745);fill-opacity:1" />
      <path
         fill="#ff551b"
         d="m -12.075399,10.684834 v 0 C -20.597172,4.3793371 -25.733727,-3.1264774 -23.548215,-6.0798727 v 0 c 1.049519,-1.4182704 3.681714,-1.5755805 7.317529,-0.437325 3.635815,1.1382557 7.9774248,3.4788363 12.0697251,6.50684411 v 0 C 4.3608104,6.2951421 9.4973677,13.800956 7.3118538,16.754351 v 0 C 6.2623391,18.172619 3.6301424,18.329932 -0.00567175,17.191673 -3.6414886,16.05342 -7.9830989,13.712839 -12.075399,10.684834 Z"
         fill-rule="nonzero"
         id="path3646"
         style="fill:url(#linearGradient6721);fill-opacity:1;stroke-width:0.141488" />
      <path
         fill="#ff551b"
         d="m 152.30193,318.31866 v 0 C 77.756535,325.8941 15.19626,311.09481 12.56965,285.26355 v 0 c -1.261345,-12.40461 11.749658,-25.74631 36.17073,-37.09003 24.421078,-11.34374 58.25178,-19.76032 94.04974,-23.39816 v 0 c 74.54539,-7.57543 137.10567,7.22384 139.73228,33.05511 v 0 c 1.26135,12.40463 -11.74966,25.74631 -36.17073,37.09003 -24.42108,11.34375 -58.25178,19.76031 -94.04974,23.39816 z"
         fill-rule="nonzero"
         id="path3648"
         transform="matrix(0.14148841,0,0,0.14148841,-32.805792,-21.062634)"
         clip-path="url(#clipPath6385)"
         style="fill:url(#linearGradient6586);fill-opacity:1" />
      <path
         fill="#ff551b"
         d="m 234.65633,381.72943 v 0 c -42.4433,61.75153 -94.19495,99.88843 -115.59055,85.18112 v 0 c -10.27452,-7.06271 -12.03152,-25.61618 -4.88446,-51.57889 7.14705,-25.96271 22.6127,-57.20795 42.99469,-86.86206 v 0 c 42.4433,-61.75152 94.19496,-99.8884 115.59056,-85.18111 v 0 c 10.27454,7.0627 12.03153,25.61617 4.88446,51.5789 -7.14706,25.96271 -22.61271,57.20792 -42.9947,86.86203 z"
         fill-rule="nonzero"
         id="path3650"
         transform="matrix(0.14148841,0,0,0.14148841,-32.805792,-21.062634)"
         clip-path="url(#clipPath6381)"
         style="fill:url(#linearGradient6769);fill-opacity:1" />
      <path
         fill="#ffffff"
         d="m 1.9046913,8.4091682 v 0 C 1.3919712,3.0989929 2.6558381,-1.3336311 4.7276235,-1.4913794 v 0 c 0.9949047,-0.075753 2.0468695,0.86459613 2.9244766,2.614178 0.8776044,1.7495835 1.508961,4.1650822 1.7551796,6.7151183 v 0 C 9.9200025,13.148091 8.656133,17.580719 6.5843476,17.738464 v 0 C 4.5125675,17.896211 2.4174088,13.719342 1.9046913,8.4091682 Z"
         fill-rule="nonzero"
         id="path3652"
         style="stroke-width:0.141488" />
      <path
         fill="#ffffff"
         d="m 298.65454,207.32373 v 0 c 23.47076,-31.37479 52.42014,-50.9538 64.66019,-43.73094 v 0 c 5.8779,3.46852 7.03763,12.78021 3.22406,25.88661 -3.81354,13.10639 -12.28799,28.93385 -23.55908,44.00055 v 0 c -23.47077,31.37479 -52.42014,50.9538 -64.66019,43.73096 v 0 c -12.24008,-7.22284 -3.13577,-38.51241 20.33502,-69.88718 z"
         fill-rule="nonzero"
         id="path3654"
         transform="matrix(0.14148841,0,0,0.14148841,-32.805792,-21.062634)"
         clip-path="url(#clipPath6377)" />
      <path
         fill="#ffffff"
         d="m 251.68875,318.25146 v 0 c 0,-37.66635 11.91421,-68.20096 26.61114,-68.20096 v 0 c 7.05774,0 13.82639,7.18542 18.81696,19.97559 4.99054,12.79016 7.79422,30.13736 7.79422,48.22537 v 0 c 0,37.66635 -11.91421,68.20096 -26.61118,68.20096 v 0 c -14.69693,0 -26.61114,-30.53461 -26.61114,-68.20096 z"
         fill-rule="nonzero"
         id="path3656"
         transform="matrix(0.14148841,0,0,0.14148841,-32.805792,-21.062634)"
         clip-path="url(#clipPath6373)" />
      <path
         fill="#ffffff"
         d="m 344.03137,291.67307 v 0 c 24.57367,30.70145 34.78357,61.71808 22.80447,69.27759 v 0 c -5.75256,3.63019 -15.95733,1.25494 -28.36938,-6.60324 -12.41202,-7.85819 -26.01459,-20.55564 -37.81528,-35.29898 v 0 c -24.57367,-30.70145 -34.7836,-61.71811 -22.80447,-69.2776 v 0 c 11.97909,-7.5595 41.61099,11.20076 66.18466,41.90224 z"
         fill-rule="nonzero"
         id="path3658"
         transform="matrix(0.14148841,0,0,0.14148841,-32.805792,-21.062634)"
         clip-path="url(#clipPath6369)" />
      <path
         fill="#ffffff"
         d="m 354.0741,236.0831 v 0 c 42.41678,0 76.8024,10.57989 76.8024,23.63086 v 0 c 0,6.2673 -8.09168,12.27789 -22.4949,16.70953 -14.40323,4.43164 -33.93824,6.92133 -54.3075,6.92133 v 0 c -42.41678,0 -76.80237,-10.5799 -76.80237,-23.63086 v 0 c 0,-6.26729 8.09164,-12.27789 22.49487,-16.70953 14.40326,-4.43166 33.93824,-6.92133 54.3075,-6.92133 z"
         fill-rule="nonzero"
         id="path3660"
         transform="matrix(0.14148841,0,0,0.14148841,-32.805792,-21.062634)"
         clip-path="url(#clipPath6365)" />
      <path
         fill="#ffffff"
         d="m -4.006259,13.288008 v 0 C -8.8304362,10.118234 -11.73824,6.3450584 -10.501021,4.8603906 v 0 c 0.5941325,-0.7129645 2.084219,-0.792045 4.1424524,-0.2198434 2.0582358,0.5722004 4.5160218,1.7488104 6.83267374,3.27099 v 0 C 5.2982795,11.081309 8.2060846,14.854484 6.9688639,16.339157 v 0 C 6.3747314,17.052119 4.8846484,17.131197 2.8264123,16.558996 0.76817629,15.986795 -1.6896071,14.810188 -4.006259,13.288008 Z"
         fill-rule="nonzero"
         id="path3662"
         style="stroke-width:0.141488" />
      <path
         fill="#ffffff"
         d="m 206.82204,290.0025 v 0 c -42.20015,3.80817 -77.61552,-3.63141 -79.10245,-16.61679 v 0 c -0.71404,-6.23581 6.65149,-12.94269 20.47626,-18.64517 13.82476,-5.7025 32.97633,-9.9335 53.24154,-11.76225 v 0 c 42.20015,-3.80817 77.61553,3.63142 79.10246,16.6168 v 0 c 0.71405,6.23581 -6.65149,12.94266 -20.47625,18.64517 -13.82479,5.70249 -32.97634,9.9335 -53.24156,11.76224 z"
         fill-rule="nonzero"
         id="path3664"
         transform="matrix(0.14148841,0,0,0.14148841,-32.805792,-21.062634)"
         clip-path="url(#clipPath6361)" />
      <path
         fill="#ffffff"
         d="m 253.44286,321.87912 v 0 c -24.02715,31.04248 -53.32376,50.2139 -65.43581,42.82053 v 0 c -5.81641,-3.55042 -6.81105,-12.87726 -2.76509,-25.92871 4.04594,-13.05146 12.80105,-28.75843 24.33929,-43.66556 v 0 c 24.02716,-31.04248 53.32378,-50.2139 65.43581,-42.82054 v 0 c 12.11206,7.39335 2.45295,38.55177 -21.5742,69.59428 z"
         fill-rule="nonzero"
         id="path3666"
         transform="matrix(0.14148841,0,0,0.14148841,-32.805792,-21.062634)"
         clip-path="url(#clipPath6357)" />
    </g>
  </g>
</svg>
