<?xml version="1.0" encoding="UTF-8" standalone="no"?>
<svg
   version="1.1"
   viewBox="0 0 1672.9889 297.18088"
   fill="none"
   stroke="none"
   stroke-linecap="square"
   stroke-miterlimit="10"
   id="svg3688"
   sodipodi:docname="shop-logo.svg"
   inkscape:version="1.2 (dc2aeda, 2022-05-15)"
   width="1672.9889"
   height="297.18088"
   xmlns:inkscape="http://www.inkscape.org/namespaces/inkscape"
   xmlns:sodipodi="http://sodipodi.sourceforge.net/DTD/sodipodi-0.dtd"
   xmlns:xlink="http://www.w3.org/1999/xlink"
   xmlns="http://www.w3.org/2000/svg"
   xmlns:svg="http://www.w3.org/2000/svg">
  <defs
     id="defs3692">
    <linearGradient
       inkscape:collect="always"
       id="linearGradient6584">
      <stop
         style="stop-color:#ff551b;stop-opacity:1;"
         offset="0"
         id="stop6580" />
      <stop
         style="stop-color:#ff1bbd;stop-opacity:1;"
         offset="1"
         id="stop6582" />
    </linearGradient>
    <clipPath
       clipPathUnits="userSpaceOnUse"
       id="clipPath6357">
      <path
         d="M 0,0 H 561 V 522.99999 H 0 Z"
         clip-rule="nonzero"
         id="path6359"
         style="stroke-width:0.999999" />
    </clipPath>
    <clipPath
       clipPathUnits="userSpaceOnUse"
       id="clipPath6361">
      <path
         d="M 0,0 H 561 V 522.99999 H 0 Z"
         clip-rule="nonzero"
         id="path6363"
         style="stroke-width:0.999999" />
    </clipPath>
    <clipPath
       clipPathUnits="userSpaceOnUse"
       id="clipPath6365">
      <path
         d="M 0,0 H 561 V 522.99999 H 0 Z"
         clip-rule="nonzero"
         id="path6367"
         style="stroke-width:0.999999" />
    </clipPath>
    <clipPath
       clipPathUnits="userSpaceOnUse"
       id="clipPath6369">
      <path
         d="M 0,0 H 561 V 522.99999 H 0 Z"
         clip-rule="nonzero"
         id="path6371"
         style="stroke-width:0.999999" />
    </clipPath>
    <clipPath
       clipPathUnits="userSpaceOnUse"
       id="clipPath6373">
      <path
         d="M 0,0 H 561 V 522.99999 H 0 Z"
         clip-rule="nonzero"
         id="path6375"
         style="stroke-width:0.999999" />
    </clipPath>
    <clipPath
       clipPathUnits="userSpaceOnUse"
       id="clipPath6377">
      <path
         d="M 0,0 H 561 V 522.99999 H 0 Z"
         clip-rule="nonzero"
         id="path6379"
         style="stroke-width:0.999999" />
    </clipPath>
    <clipPath
       clipPathUnits="userSpaceOnUse"
       id="clipPath6381">
      <path
         d="M 0,0 H 561 V 522.99999 H 0 Z"
         clip-rule="nonzero"
         id="path6383"
         style="stroke-width:0.999999" />
    </clipPath>
    <clipPath
       clipPathUnits="userSpaceOnUse"
       id="clipPath6385">
      <path
         d="M 0,0 H 561 V 522.99999 H 0 Z"
         clip-rule="nonzero"
         id="path6387"
         style="stroke-width:0.999999" />
    </clipPath>
    <clipPath
       clipPathUnits="userSpaceOnUse"
       id="clipPath6389">
      <path
         d="M 0,0 H 561 V 522.99999 H 0 Z"
         clip-rule="nonzero"
         id="path6391"
         style="stroke-width:0.999999" />
    </clipPath>
    <clipPath
       clipPathUnits="userSpaceOnUse"
       id="clipPath6393">
      <path
         d="M 0,0 H 561 V 522.99999 H 0 Z"
         clip-rule="nonzero"
         id="path6395"
         style="stroke-width:0.999999" />
    </clipPath>
    <clipPath
       clipPathUnits="userSpaceOnUse"
       id="clipPath6397">
      <path
         d="M 0,0 H 561 V 522.99999 H 0 Z"
         clip-rule="nonzero"
         id="path6399"
         style="stroke-width:0.999999" />
    </clipPath>
    <clipPath
       clipPathUnits="userSpaceOnUse"
       id="clipPath6401">
      <path
         d="M 0,0 H 561 V 522.99999 H 0 Z"
         clip-rule="nonzero"
         id="path6403"
         style="stroke-width:0.999999" />
    </clipPath>
    <clipPath
       clipPathUnits="userSpaceOnUse"
       id="clipPath6405">
      <path
         d="M 0,0 H 561 V 522.99999 H 0 Z"
         clip-rule="nonzero"
         id="path6407"
         style="stroke-width:0.999999" />
    </clipPath>
    <clipPath
       clipPathUnits="userSpaceOnUse"
       id="clipPath6409">
      <path
         d="M 0,0 H 561 V 522.99999 H 0 Z"
         clip-rule="nonzero"
         id="path6411"
         style="stroke-width:0.999999" />
    </clipPath>
    <linearGradient
       inkscape:collect="always"
       xlink:href="#linearGradient6584"
       id="linearGradient6586"
       x1="12.485796"
       y1="271.547"
       x2="127.71959"
       y2="273.38571"
       gradientUnits="userSpaceOnUse" />
    <linearGradient
       inkscape:collect="always"
       xlink:href="#linearGradient6584"
       id="linearGradient6721"
       x1="33.087418"
       y1="99.846397"
       x2="99.958008"
       y2="97.213234"
       gradientUnits="userSpaceOnUse"
       gradientTransform="translate(0,-0.06734946)" />
    <linearGradient
       inkscape:collect="always"
       xlink:href="#linearGradient6584"
       id="linearGradient6729"
       x1="218.89011"
       y1="151.77226"
       x2="315.40784"
       y2="151.77226"
       gradientUnits="userSpaceOnUse" />
    <linearGradient
       inkscape:collect="always"
       xlink:href="#linearGradient6584"
       id="linearGradient6737"
       x1="269.005"
       y1="179.86499"
       x2="438.33716"
       y2="179.86499"
       gradientUnits="userSpaceOnUse" />
    <linearGradient
       inkscape:collect="always"
       xlink:href="#linearGradient6584"
       id="linearGradient6745"
       x1="276.74933"
       y1="258.06693"
       x2="548.08795"
       y2="258.06693"
       gradientUnits="userSpaceOnUse" />
    <linearGradient
       inkscape:collect="always"
       xlink:href="#linearGradient6584"
       id="linearGradient6753"
       x1="268.90369"
       y1="348.87015"
       x2="443.82327"
       y2="348.87015"
       gradientUnits="userSpaceOnUse" />
    <linearGradient
       inkscape:collect="always"
       xlink:href="#linearGradient6584"
       id="linearGradient6761"
       x1="231.55774"
       y1="374.51312"
       x2="325.57349"
       y2="374.51312"
       gradientUnits="userSpaceOnUse" />
    <linearGradient
       inkscape:collect="always"
       xlink:href="#linearGradient6584"
       id="linearGradient6769"
       x1="119.06578"
       y1="466.91055"
       x2="188.00705"
       y2="364.69965"
       gradientUnits="userSpaceOnUse" />
    <linearGradient
       inkscape:collect="always"
       xlink:href="#linearGradient6584"
       id="linearGradient6859"
       x1="979.23804"
       y1="234.48775"
       x2="979.23804"
       y2="90.737572"
       gradientUnits="userSpaceOnUse" />
    <linearGradient
       inkscape:collect="always"
       xlink:href="#linearGradient6584"
       id="linearGradient8130"
       gradientUnits="userSpaceOnUse"
       x1="979.23804"
       y1="234.48775"
       x2="979.23804"
       y2="90.737572" />
    <linearGradient
       inkscape:collect="always"
       xlink:href="#linearGradient6584"
       id="linearGradient8132"
       gradientUnits="userSpaceOnUse"
       x1="979.23804"
       y1="234.48775"
       x2="979.23804"
       y2="90.737572" />
    <linearGradient
       inkscape:collect="always"
       xlink:href="#linearGradient6584"
       id="linearGradient8134"
       gradientUnits="userSpaceOnUse"
       x1="979.23804"
       y1="234.48775"
       x2="979.23804"
       y2="90.737572" />
    <linearGradient
       inkscape:collect="always"
       xlink:href="#linearGradient6584"
       id="linearGradient8136"
       gradientUnits="userSpaceOnUse"
       x1="979.23804"
       y1="234.48775"
       x2="979.23804"
       y2="90.737572" />
    <linearGradient
       inkscape:collect="always"
       xlink:href="#linearGradient6584"
       id="linearGradient8138"
       gradientUnits="userSpaceOnUse"
       x1="979.23804"
       y1="234.48775"
       x2="979.23804"
       y2="90.737572" />
    <linearGradient
       inkscape:collect="always"
       xlink:href="#linearGradient6584"
       id="linearGradient8140"
       gradientUnits="userSpaceOnUse"
       x1="979.23804"
       y1="234.48775"
       x2="979.23804"
       y2="90.737572" />
    <linearGradient
       inkscape:collect="always"
       xlink:href="#linearGradient6584"
       id="linearGradient8142"
       gradientUnits="userSpaceOnUse"
       x1="979.23804"
       y1="234.48775"
       x2="979.23804"
       y2="90.737572" />
    <linearGradient
       inkscape:collect="always"
       xlink:href="#linearGradient6584"
       id="linearGradient8144"
       gradientUnits="userSpaceOnUse"
       x1="979.23804"
       y1="234.48775"
       x2="979.23804"
       y2="90.737572" />
    <linearGradient
       inkscape:collect="always"
       xlink:href="#linearGradient6584"
       id="linearGradient8146"
       gradientUnits="userSpaceOnUse"
       x1="979.23804"
       y1="234.48775"
       x2="979.23804"
       y2="90.737572" />
    <linearGradient
       inkscape:collect="always"
       xlink:href="#linearGradient6584"
       id="linearGradient8148"
       gradientUnits="userSpaceOnUse"
       x1="979.23804"
       y1="234.48775"
       x2="979.23804"
       y2="90.737572" />
  </defs>
  <sodipodi:namedview
     id="namedview3690"
     pagecolor="#ffffff"
     bordercolor="#000000"
     borderopacity="0.25"
     inkscape:showpageshadow="2"
     inkscape:pageopacity="0.0"
     inkscape:pagecheckerboard="0"
     inkscape:deskcolor="#d1d1d1"
     showgrid="false"
     inkscape:zoom="0.27074213"
     inkscape:cx="701.77479"
     inkscape:cy="430.29875"
     inkscape:window-width="1838"
     inkscape:window-height="951"
     inkscape:window-x="0"
     inkscape:window-y="25"
     inkscape:window-maximized="0"
     inkscape:current-layer="svg3688" />
  <path
     fill="#000000"
     fill-opacity="0"
     d="M 0,0 H 561.54333 V 523.16534 H 0 Z"
     fill-rule="nonzero"
     id="path3634"
     transform="scale(0.53475936)"
     clip-path="url(#clipPath6409)" />
  <path
     fill="#ff551b"
     d="m 220.31432,155.788 v 0 c -6.40128,-74.658455 9.37804,-136.979 35.2441,-139.19684 v 0 c 12.42132,-1.065043 25.55505,12.155788 36.5119,36.754066 10.95684,24.59827 18.83929,58.559034 21.9133,94.411284 v 0 c 6.40127,74.65846 -9.37806,136.97903 -35.24411,139.19687 v 0 c -12.4213,1.06503 -25.55503,-12.15579 -36.51187,-36.75407 -10.95685,-24.59828 -18.83931,-58.55904 -21.91332,-94.4113 z"
     fill-rule="nonzero"
     id="path3636"
     transform="scale(0.53475936)"
     clip-path="url(#clipPath6405)"
     style="fill:url(#linearGradient6729);fill-opacity:1" />
  <path
     fill="#ff551b"
     d="m 314.52148,153.84923 v 0 C 355.98199,91.43671 407.12023,52.48901 428.74197,66.85711 v 0 c 10.38312,6.899803 12.43173,25.423164 5.69519,51.49515 -6.73654,26.07198 -21.70642,57.55692 -41.61645,87.52848 v 0 c -41.46051,62.4125 -92.59876,101.36023 -114.22046,86.99213 v 0 c -10.38315,-6.89981 -12.43177,-25.42319 -5.69523,-51.49516 6.73655,-26.07198 21.70642,-57.55692 41.61646,-87.52847 z"
     fill-rule="nonzero"
     id="path3638"
     transform="scale(0.53475936)"
     clip-path="url(#clipPath6401)"
     style="fill:url(#linearGradient6737);fill-opacity:1" />
  <path
     fill="#ff551b"
     d="m 231.55774,374.51312 v 0 c 0,-74.92807 21.04614,-135.6693 47.00787,-135.6693 v 0 c 12.46726,0 24.42389,14.2937 33.2396,39.73662 8.81567,25.44293 13.76828,59.95096 13.76828,95.93268 v 0 c 0,74.92807 -21.04615,135.66928 -47.00788,135.66928 v 0 c -12.46725,0 -24.42389,-14.29367 -33.23958,-39.7366 -8.81569,-25.44294 -13.76829,-59.95096 -13.76829,-95.93268 z"
     fill-rule="nonzero"
     id="path3640"
     transform="scale(0.53475936)"
     clip-path="url(#clipPath6397)"
     style="fill:url(#linearGradient6761);fill-opacity:1" />
  <path
     fill="#ff551b"
     d="m 394.67844,321.6418 v 0 c 43.40872,61.07312 61.44421,122.77322 40.28345,137.811 v 0 c -10.16175,7.22144 -28.1882,2.49643 -50.11371,-13.13556 -21.92551,-15.63196 -45.95407,-40.89041 -66.79965,-70.21875 v 0 C 274.63981,315.02537 256.60428,253.32527 277.76505,238.28745 v 0 c 10.16177,-7.2214 28.1882,-2.4964 50.11371,13.13558 21.92551,15.63197 45.95407,40.89042 66.79968,70.21876 z"
     fill-rule="nonzero"
     id="path3642"
     transform="scale(0.53475936)"
     clip-path="url(#clipPath6393)"
     style="fill:url(#linearGradient6753);fill-opacity:1" />
  <path
     fill="#ff551b"
     d="m 412.41864,211.05905 v 0 c 74.92807,0 135.66931,21.04614 135.66931,47.00787 v 0 c 0,12.46726 -14.2937,24.42389 -39.73663,33.2396 -25.44294,8.81567 -59.95096,13.76828 -95.93268,13.76828 v 0 c -74.9281,0 -135.66931,-21.04614 -135.66931,-47.00788 v 0 c 0,-12.46725 14.2937,-24.42389 39.73663,-33.23958 25.44293,-8.81568 59.95093,-13.76829 95.93268,-13.76829 z"
     fill-rule="nonzero"
     id="path3644"
     transform="scale(0.53475936)"
     clip-path="url(#clipPath6389)"
     style="fill:url(#linearGradient6745);fill-opacity:1" />
  <path
     fill="#ff551b"
     d="m 78.351091,119.99043 v 0 C 46.142815,96.158632 26.729064,67.790199 34.989267,56.62776 v 0 c 3.966686,-5.360392 13.915139,-5.95495 27.656803,-1.652882 13.741663,4.302069 30.150898,13.148358 45.61786,24.592797 v 0 c 32.20827,23.831795 51.62203,52.200225 43.36182,63.362665 v 0 c -3.96667,5.36038 -13.91513,5.95495 -27.65679,1.65287 -13.74167,-4.30206 -30.150906,-13.14835 -45.617869,-24.59278 z"
     fill-rule="nonzero"
     id="path3646"
     style="fill:url(#linearGradient6721);fill-opacity:1;stroke-width:0.534759" />
  <path
     fill="#ff551b"
     d="m 152.30193,318.31866 v 0 C 77.756535,325.8941 15.19626,311.09481 12.56965,285.26355 v 0 c -1.261345,-12.40461 11.749658,-25.74631 36.17073,-37.09003 24.421078,-11.34374 58.25178,-19.76032 94.04974,-23.39816 v 0 c 74.54539,-7.57543 137.10567,7.22384 139.73228,33.05511 v 0 c 1.26135,12.40463 -11.74966,25.74631 -36.17073,37.09003 -24.42108,11.34375 -58.25178,19.76031 -94.04974,23.39816 z"
     fill-rule="nonzero"
     id="path3648"
     transform="scale(0.53475936)"
     clip-path="url(#clipPath6385)"
     style="fill:url(#linearGradient6586);fill-opacity:1" />
  <path
     fill="#ff551b"
     d="m 234.65633,381.72943 v 0 c -42.4433,61.75153 -94.19495,99.88843 -115.59055,85.18112 v 0 c -10.27452,-7.06271 -12.03152,-25.61618 -4.88446,-51.57889 7.14705,-25.96271 22.6127,-57.20795 42.99469,-86.86206 v 0 c 42.4433,-61.75152 94.19496,-99.8884 115.59056,-85.18111 v 0 c 10.27454,7.0627 12.03153,25.61617 4.88446,51.5789 -7.14706,25.96271 -22.61271,57.20792 -42.9947,86.86203 z"
     fill-rule="nonzero"
     id="path3650"
     transform="scale(0.53475936)"
     clip-path="url(#clipPath6381)"
     style="fill:url(#linearGradient6769);fill-opacity:1" />
  <path
     fill="#ffffff"
     d="m 131.18923,111.38949 v 0 c -1.93784,-20.069954 2.83898,-36.823179 10.66935,-37.419393 v 0 c 3.76027,-0.28631 7.7362,3.267765 11.05314,9.880358 3.31693,6.612599 5.70316,15.742043 6.63375,25.379975 v 0 c 1.93785,20.06995 -2.83898,36.82319 -10.66935,37.41939 v 0 c -7.83035,0.59621 -15.74906,-15.19038 -17.68689,-35.26033 z"
     fill-rule="nonzero"
     id="path3652"
     style="stroke-width:0.534759" />
  <path
     fill="#ffffff"
     d="m 298.65454,207.32373 v 0 c 23.47076,-31.37479 52.42014,-50.9538 64.66019,-43.73094 v 0 c 5.8779,3.46852 7.03763,12.78021 3.22406,25.88661 -3.81354,13.10639 -12.28799,28.93385 -23.55908,44.00055 v 0 c -23.47077,31.37479 -52.42014,50.9538 -64.66019,43.73096 v 0 c -12.24008,-7.22284 -3.13577,-38.51241 20.33502,-69.88718 z"
     fill-rule="nonzero"
     id="path3654"
     transform="scale(0.53475936)"
     clip-path="url(#clipPath6377)" />
  <path
     fill="#ffffff"
     d="m 251.68875,318.25146 v 0 c 0,-37.66635 11.91421,-68.20096 26.61114,-68.20096 v 0 c 7.05774,0 13.82639,7.18542 18.81696,19.97559 4.99054,12.79016 7.79422,30.13736 7.79422,48.22537 v 0 c 0,37.66635 -11.91421,68.20096 -26.61118,68.20096 v 0 c -14.69693,0 -26.61114,-30.53461 -26.61114,-68.20096 z"
     fill-rule="nonzero"
     id="path3656"
     transform="scale(0.53475936)"
     clip-path="url(#clipPath6373)" />
  <path
     fill="#ffffff"
     d="m 344.03137,291.67307 v 0 c 24.57367,30.70145 34.78357,61.71808 22.80447,69.27759 v 0 c -5.75256,3.63019 -15.95733,1.25494 -28.36938,-6.60324 -12.41202,-7.85819 -26.01459,-20.55564 -37.81528,-35.29898 v 0 c -24.57367,-30.70145 -34.7836,-61.71811 -22.80447,-69.2776 v 0 c 11.97909,-7.5595 41.61099,11.20076 66.18466,41.90224 z"
     fill-rule="nonzero"
     id="path3658"
     transform="scale(0.53475936)"
     clip-path="url(#clipPath6369)" />
  <path
     fill="#ffffff"
     d="m 354.0741,236.0831 v 0 c 42.41678,0 76.8024,10.57989 76.8024,23.63086 v 0 c 0,6.2673 -8.09168,12.27789 -22.4949,16.70953 -14.40323,4.43164 -33.93824,6.92133 -54.3075,6.92133 v 0 c -42.41678,0 -76.80237,-10.5799 -76.80237,-23.63086 v 0 c 0,-6.26729 8.09164,-12.27789 22.49487,-16.70953 14.40326,-4.43166 33.93824,-6.92133 54.3075,-6.92133 z"
     fill-rule="nonzero"
     id="path3660"
     transform="scale(0.53475936)"
     clip-path="url(#clipPath6365)" />
  <path
     fill="#ffffff"
     d="m 108.84863,129.8292 v 0 C 90.615519,117.84895 79.625396,103.58813 84.301498,97.976787 v 0 c 2.24554,-2.694669 7.877363,-2.993556 15.656513,-0.830904 7.779159,2.162647 17.068429,6.609677 25.824279,12.362797 v 0 c 18.2331,11.98024 29.22323,26.24106 24.54712,31.85242 v 0 c -2.24554,2.69466 -7.87735,2.99354 -15.65651,0.83089 -7.77916,-2.16265 -17.06842,-6.60967 -25.82427,-12.36279 z"
     fill-rule="nonzero"
     id="path3662"
     style="stroke-width:0.534759" />
  <path
     fill="#ffffff"
     d="m 206.82204,290.0025 v 0 c -42.20015,3.80817 -77.61552,-3.63141 -79.10245,-16.61679 v 0 c -0.71404,-6.23581 6.65149,-12.94269 20.47626,-18.64517 13.82476,-5.7025 32.97633,-9.9335 53.24154,-11.76225 v 0 c 42.20015,-3.80817 77.61553,3.63142 79.10246,16.6168 v 0 c 0.71405,6.23581 -6.65149,12.94266 -20.47625,18.64517 -13.82479,5.70249 -32.97634,9.9335 -53.24156,11.76224 z"
     fill-rule="nonzero"
     id="path3664"
     transform="scale(0.53475936)"
     clip-path="url(#clipPath6361)" />
  <path
     fill="#ffffff"
     d="m 253.44286,321.87912 v 0 c -24.02715,31.04248 -53.32376,50.2139 -65.43581,42.82053 v 0 c -5.81641,-3.55042 -6.81105,-12.87726 -2.76509,-25.92871 4.04594,-13.05146 12.80105,-28.75843 24.33929,-43.66556 v 0 c 24.02716,-31.04248 53.32378,-50.2139 65.43581,-42.82054 v 0 c 12.11206,7.39335 2.45295,38.55177 -21.5742,69.59428 z"
     fill-rule="nonzero"
     id="path3666"
     transform="scale(0.53475936)"
     clip-path="url(#clipPath6357)" />
  <g
     aria-label="SanTanShop"
     id="text4540"
     style="font-weight:800;font-stretch:condensed;font-size:266.667px;font-family:Futura;-inkscape-font-specification:'Futura, Ultra-Bold Condensed';fill:url(#linearGradient6859);fill-opacity:1;stroke-width:2"
     transform="translate(0,-0.06734946)">
    <path
       d="m 297.33619,229.53982 v -63.15111 q 16.01565,21.87502 34.63546,21.87502 7.03126,0 11.45835,-3.64584 4.42709,-3.77604 4.42709,-9.37501 0,-8.07292 -9.63543,-15.75522 l -8.85418,-6.90105 q -8.85417,-6.64064 -15.10418,-13.15106 -6.25001,-6.64064 -10.15626,-13.54169 -3.90626,-7.03125 -5.72918,-14.45314 -1.82292,-7.42188 -1.82292,-15.625017 0,-14.062517 6.51043,-29.427119 3.25521,-7.161467 7.55209,-13.02085 4.29688,-5.98959 9.89585,-10.546887 15.3646,-13.02085 37.10942,-13.02085 19.40106,0 39.06254,10.286471 v 61.458412 q -6.64063,-10.286474 -15.10418,-16.145856 -8.46355,-5.989591 -16.66669,-5.989591 -6.25001,0 -10.28647,3.645838 -4.16667,3.515629 -4.16667,8.463552 0,8.072926 11.06772,16.015647 l 8.59376,6.38021 q 17.18752,12.36981 24.60941,25.39066 7.55209,13.02085 7.55209,30.46879 0,29.68753 -18.09898,48.95839 -18.09898,19.27086 -45.83339,19.27086 -19.14065,0 -41.01568,-8.46356 z"
       id="path6284"
       style="fill:url(#linearGradient8130);fill-opacity:1" />
    <path
       d="m 547.20629,234.48775 h -52.34381 q 0.65104,-7.03126 1.04167,-13.41148 0.39062,-6.38021 0.78125,-10.28647 -13.54168,26.56253 -36.32817,26.56253 -19.79169,0 -31.38025,-19.79169 -11.45834,-19.66148 -11.45834,-54.42715 0,-33.59379 11.84897,-52.86464 11.84897,-19.531278 32.2917,-19.531278 20.96357,0 33.85421,25.260448 -0.26041,-2.60417 -0.39062,-4.5573 -0.13021,-1.95313 -0.26042,-3.25521 l -0.52083,-8.203135 -0.39063,-6.250008 h 53.25527 z m -52.86464,-72.13551 q 0,-7.81251 -0.65105,-13.28126 -0.52083,-5.46876 -1.82292,-8.85418 -1.30208,-3.51563 -3.38542,-4.94792 -2.08333,-1.56251 -5.07813,-1.56251 -13.28126,0 -13.28126,35.28651 0,25.26044 11.84897,25.26044 12.36981,0 12.36981,-31.90108 z"
       id="path6286"
       style="fill:url(#linearGradient8132);fill-opacity:1" />
    <path
       d="m 695.12315,234.48775 h -52.2136 v -74.47926 q 0,-9.63543 -1.95313,-13.41148 -1.82292,-3.77604 -6.51043,-3.77604 -10.93751,0 -10.93751,20.70315 v 70.96363 h -52.2136 V 93.732367 h 52.2136 q -0.13021,5.20834 -0.26042,9.635433 -0.1302,4.42708 -0.39062,8.20313 l -0.52084,8.98439 q 12.63023,-29.817748 36.97922,-29.817748 16.9271,0 26.30211,12.630228 9.50522,12.63022 9.50522,35.15629 z"
       id="path6288"
       style="fill:url(#linearGradient8134);fill-opacity:1" />
    <path
       d="M 791.34719,234.48775 H 737.05025 V 81.622977 H 707.10229 V 33.445835 h 115.36473 v 48.177142 h -31.11983 z"
       id="path6290"
       style="fill:url(#linearGradient8136);fill-opacity:1" />
    <path
       d="m 955.1495,234.48775 h -52.34381 q 0.65104,-7.03126 1.04166,-13.41148 0.39063,-6.38021 0.78126,-10.28647 -13.54169,26.56253 -36.32817,26.56253 -19.79169,0 -31.38025,-19.79169 -11.45835,-19.66148 -11.45835,-54.42715 0,-33.59379 11.84898,-52.86464 11.84897,-19.531278 32.2917,-19.531278 20.96357,0 33.85421,25.260448 -0.26042,-2.60417 -0.39063,-4.5573 -0.1302,-1.95313 -0.26041,-3.25521 l -0.52084,-8.203135 -0.39062,-6.250008 h 53.25527 z m -52.86465,-72.13551 q 0,-7.81251 -0.65104,-13.28126 -0.52083,-5.46876 -1.82292,-8.85418 -1.30208,-3.51563 -3.38542,-4.94792 -2.08334,-1.56251 -5.07813,-1.56251 -13.28127,0 -13.28127,35.28651 0,25.26044 11.84898,25.26044 12.3698,0 12.3698,-31.90108 z"
       id="path6292"
       style="fill:url(#linearGradient8138);fill-opacity:1" />
    <path
       d="m 1103.0663,234.48775 h -52.2136 v -74.47926 q 0,-9.63543 -1.9531,-13.41148 -1.8229,-3.77604 -6.5104,-3.77604 -10.9375,0 -10.9375,20.70315 v 70.96363 H 979.23805 V 93.732367 h 52.21365 q -0.1303,5.20834 -0.2605,9.635433 -0.1302,4.42708 -0.3906,8.20313 l -0.5208,8.98439 q 12.6302,-29.817748 36.9792,-29.817748 16.9271,0 26.3021,12.630228 9.5052,12.63022 9.5052,35.15629 z"
       id="path6294"
       style="fill:url(#linearGradient8140);fill-opacity:1" />
    <path
       d="m 1124.8112,229.53982 v -63.15111 q 16.0156,21.87502 34.6354,21.87502 7.0313,0 11.4584,-3.64584 4.4271,-3.77604 4.4271,-9.37501 0,-8.07292 -9.6355,-15.75522 l -8.8541,-6.90105 q -8.8542,-6.64064 -15.1042,-13.15106 -6.25,-6.64064 -10.1563,-13.54169 -3.9062,-7.03125 -5.7292,-14.45314 -1.8229,-7.42188 -1.8229,-15.625017 0,-14.062517 6.5104,-29.427119 3.2553,-7.161467 7.5521,-13.02085 4.2969,-5.98959 9.8959,-10.546887 15.3646,-13.02085 37.1094,-13.02085 19.4011,0 39.0625,10.286471 v 61.458412 q -6.6406,-10.286474 -15.1041,-16.145856 -8.4636,-5.989591 -16.6667,-5.989591 -6.25,0 -10.2865,3.645838 -4.1667,3.515629 -4.1667,8.463552 0,8.072926 11.0678,16.015647 l 8.5937,6.38021 q 17.1875,12.36981 24.6094,25.39066 7.5521,13.02085 7.5521,30.46879 0,29.68753 -18.099,48.95839 -18.0989,19.27086 -45.8334,19.27086 -19.1406,0 -41.0156,-8.46356 z"
       id="path6296"
       style="fill:url(#linearGradient8142);fill-opacity:1" />
    <path
       d="m 1372.8583,234.48775 h -52.2136 v -74.47926 q 0,-9.63543 -1.9531,-13.41148 -1.8229,-3.77604 -6.5104,-3.77604 -10.9376,0 -10.9376,20.70315 v 70.96363 H 1249.03 V 14.565604 h 52.2136 v 78.645929 q 0,6.380216 -0.1302,10.677097 0,4.29688 -0.1302,6.51042 -0.1302,2.21355 -0.3906,4.68751 -0.2604,2.47396 -0.5208,5.46876 12.6302,-29.817748 36.9792,-29.817748 16.9271,0 26.3021,12.630228 9.5052,12.63022 9.5052,35.15629 z"
       id="path6298"
       style="fill:url(#linearGradient8144);fill-opacity:1" />
    <path
       d="m 1523.77,166.2585 q 0,32.55212 -17.9688,51.82298 -17.9688,19.27085 -48.1771,19.27085 -29.6876,0 -47.2657,-19.66148 -17.4479,-19.79169 -17.4479,-53.12506 0,-33.33338 17.8385,-53.51569 17.7084,-20.312528 47.0053,-20.312528 30.8594,0 48.4375,20.182318 17.5782,20.18231 17.5782,55.33861 z m -50.6511,-1.69271 q 0,-7.81251 -1.0417,-14.06252 -1.0417,-6.38022 -2.9948,-10.80731 -1.9531,-4.55729 -4.6875,-7.03125 -2.7344,-2.47397 -6.1198,-2.47397 -6.6406,0 -10.6771,9.37502 -4.0364,8.20313 -4.0364,24.6094 0,16.14585 4.0364,24.60941 4.0365,9.37501 10.8073,9.37501 6.3802,0 10.5469,-9.24481 4.1667,-10.28647 4.1667,-24.34898 z"
       id="path6300"
       style="fill:url(#linearGradient8146);fill-opacity:1" />
    <path
       d="m 1596.1659,297.24824 h -52.2136 V 93.732367 h 52.2136 l -1.1719,19.921903 q 3.2552,-6.25001 6.6406,-10.54689 3.3855,-4.42709 7.2917,-7.161469 3.9063,-2.734378 8.3334,-3.906254 4.5573,-1.302085 10.026,-1.302085 20.3125,0 33.073,20.312528 12.6302,20.0521 12.6302,53.25527 0,33.724 -12.1094,53.38548 -11.849,19.66148 -32.6823,19.66148 -19.0105,0 -33.2032,-22.00523 0.6511,6.64063 0.7813,11.45835 0.3906,4.94792 0.3906,11.84897 z m 22.7865,-134.50537 q 0,-13.8021 -3.2552,-21.35419 -3.125,-7.68231 -8.9844,-7.68231 -12.1094,0 -12.1094,29.55733 0,30.20837 11.7188,30.20837 5.8593,0 9.2448,-8.07292 3.3854,-8.07293 3.3854,-22.65628 z"
       id="path6302"
       style="fill:url(#linearGradient8148);fill-opacity:1" />
  </g>
  <path
     style="fill:none;fill-opacity:1;stroke:#8600d1;stroke-width:19.927;stroke-dasharray:none;stroke-opacity:1"
     d="M 307.92674,263.67914 H 1509.7356"
     id="path7066" />
</svg>
